<?xml version="1.0" standalone="no"?><!DOCTYPE svg PUBLIC "-//W3C//DTD SVG 1.1//EN" "http://www.w3.org/Graphics/SVG/1.1/DTD/svg11.dtd"><svg t="1544175522584" class="icon" style="" viewBox="0 0 1062 1024" version="1.1" xmlns="http://www.w3.org/2000/svg" p-id="27362" xmlns:xlink="http://www.w3.org/1999/xlink" width="84.005859375" height="81"><defs><style type="text/css"></style></defs><path d="M502.541145 444.38049C502.541145 492.741302 542.03296 531.945491 590.748581 531.945491 639.464205 531.945491 678.956021 492.741302 678.956021 444.38049 678.956021 396.019674 639.464205 356.81549 590.748581 356.81549 542.03296 356.81549 502.541145 396.019674 502.541145 444.38049L502.541145 444.38049Z" p-id="27363" fill="#666666"></path><path d="M238.043319 1.20159C172.910227 1.20159 120.307617 53.446827 120.307617 117.894421L120.307617 205.521212 44.861483 205.521212C20.223258 205.521212 0.141808 225.46799 0.141808 250.072232 0.141808 274.848974 20.163607 294.623253 44.861483 294.623253L120.307617 294.623253 120.307617 380.651213 44.861483 380.651213C20.223258 380.651213 0.141808 400.597989 0.141808 425.202233 0.141808 449.978975 20.163607 469.753253 44.861483 469.753253L120.307617 469.753253 120.307617 555.781215 44.861483 555.781215C20.223258 555.781215 0.141808 575.727991 0.141808 600.332235 0.141808 625.108977 20.163607 644.883255 44.861483 644.883255L120.307617 644.883255 120.307617 730.911217 120.307617 820.013257 120.307617 906.103008C120.307617 970.729536 173.019154 1022.795837 238.043319 1022.795837L943.455145 1022.795837C1008.588235 1022.795837 1061.190846 970.550598 1061.190846 906.103004L1061.190846 117.894421C1061.190846 53.267893 1008.478011 1.20159 943.455145 1.20159L238.043319 1.20159ZM590.748581 765.453445C554.210095 765.453445 414.332408 583.474988 414.332408 444.38049 414.332408 305.285993 505.569052 258.546556 590.748581 258.546556 675.928113 258.546556 767.164754 302.506703 767.164754 444.38049 767.164754 586.254275 627.28707 765.453445 590.748581 765.453445L590.748581 765.453445Z" p-id="27364" fill="#666666"></path></svg>