<?xml version="1.0" standalone="no"?><!DOCTYPE svg PUBLIC "-//W3C//DTD SVG 1.1//EN" "http://www.w3.org/Graphics/SVG/1.1/DTD/svg11.dtd"><svg t="1537496902877" class="icon" style="" viewBox="0 0 1024 1024" version="1.1" xmlns="http://www.w3.org/2000/svg" p-id="26752" xmlns:xlink="http://www.w3.org/1999/xlink" width="48" height="48"><defs><style type="text/css"></style></defs><path d="M796.791741 487.401766l99.05297 0 0 55.481615-99.05297 0 0-55.481615ZM519.382641 751.408625l55.481615 0 0 99.05297-55.481615 0 0-99.05297ZM803.820218 297.65201l-70.039632 70.039632-39.23105-39.23105 70.039632-70.039632 39.23105 39.23105ZM764.592611 771.876269l-70.039632-70.039632 39.23105-39.23105 70.039632 70.039632-39.23105 39.23105ZM388.881424 664.954601l131.559315-131.612527L520.440739 267.336698l84.127026 0 0 299.284317c-5.849218 5.849218-156.153456 157.846004-156.153456 157.846004L388.881424 664.954601zM570.04653 54.625108l0 79.81379c206.260667 0 374.085954 167.825286 374.085954 374.117676 0 206.281133-167.825286 374.107443-374.085954 374.107443-189.280948 0-346.091366-141.384078-370.630249-324.072887l56.933687 56.158021 56.44557-56.44557L156.845721 402.354787 0.491697 558.314839l56.44557 56.44557 61.48433-61.48433c22.539342 229.363851 216.477356 409.214009 451.646424 409.214009 250.265904 0 453.911-203.63384 453.911-453.921233C1023.956507 258.270205 820.3329 54.625108 570.04653 54.625108z" p-id="26753" fill="#666666"></path></svg>