<?xml version="1.0" standalone="no"?><!DOCTYPE svg PUBLIC "-//W3C//DTD SVG 1.1//EN" "http://www.w3.org/Graphics/SVG/1.1/DTD/svg11.dtd"><svg t="1547287324700" class="icon" style="" viewBox="0 0 1024 1024" version="1.1" xmlns="http://www.w3.org/2000/svg" p-id="2317" xmlns:xlink="http://www.w3.org/1999/xlink" width="48" height="48"><defs><style type="text/css"></style></defs><path d="M865 731.6H618.4l-96 97.5v-0.5c-1.7 3.5-5.2 5.9-9.3 5.9-4.1 0-7.7-2.4-9.3-5.9v0.5l-96-97.5H159c-17.2 0-31.1-13.9-31.1-31.1V222.8c0-17.2 13.9-31.1 31.1-31.1h706c17.2 0 31.1 13.9 31.1 31.1v477.6c0.1 17.2-13.9 31.2-31.1 31.2zM340.7 404.5c-31.5 0-57.1 25.6-57.1 57.1s25.6 57.1 57.1 57.1 57.1-25.6 57.1-57.1-25.6-57.1-57.1-57.1z m171.3 0c-31.5 0-57.1 25.6-57.1 57.1s25.6 57.1 57.1 57.1 57.1-25.6 57.1-57.1-25.6-57.1-57.1-57.1z m171.3 0c-31.5 0-57.1 25.6-57.1 57.1s25.6 57.1 57.1 57.1 57.1-25.6 57.1-57.1-25.5-57.1-57.1-57.1z" fill="#707070" p-id="2318"></path></svg>