<?xml version="1.0" standalone="no"?><!DOCTYPE svg PUBLIC "-//W3C//DTD SVG 1.1//EN" "http://www.w3.org/Graphics/SVG/1.1/DTD/svg11.dtd"><svg t="1539308846210" class="icon" style="" viewBox="0 0 1024 1024" version="1.1" xmlns="http://www.w3.org/2000/svg" p-id="2041" xmlns:xlink="http://www.w3.org/1999/xlink" width="128" height="128"><defs><style type="text/css"></style></defs><path d="M340.032 202.752h311.808a34.048 34.048 0 1 0 0-68.288H340.032a34.048 34.048 0 1 0 0 68.288zM818.816 257.344H173.12a34.112 34.112 0 1 0 0 68.288H224v478.4c0 47.104 38.336 85.504 85.44 85.504h372.992c47.104 0 85.504-38.4 85.504-85.504V325.632h50.88a34.048 34.048 0 1 0 0-68.288z m-119.168 546.688a17.344 17.344 0 0 1-17.216 17.152H309.44a17.28 17.28 0 0 1-17.152-17.152V325.632h407.296v478.4z" fill="#ff0000" p-id="2042"></path><path d="M407.168 750.848a34.112 34.112 0 0 0 34.176-34.176V414.272a34.048 34.048 0 1 0-68.288 0v302.464c0 18.816 15.232 34.112 34.112 34.112zM583.616 750.848a34.176 34.176 0 0 0 34.176-34.176V414.272a34.112 34.112 0 0 0-68.352 0v302.464c0 18.816 15.232 34.112 34.176 34.112z" fill="#ff0000" p-id="2043"></path></svg>