<?xml version="1.0" standalone="no"?><!DOCTYPE svg PUBLIC "-//W3C//DTD SVG 1.1//EN" "http://www.w3.org/Graphics/SVG/1.1/DTD/svg11.dtd"><svg t="1544593806628" class="icon" style="" viewBox="0 0 1024 1024" version="1.1" xmlns="http://www.w3.org/2000/svg" p-id="15766" xmlns:xlink="http://www.w3.org/1999/xlink" width="81" height="81"><defs><style type="text/css"></style></defs><path d="M353.823 681.198a3.563 3.563 0 0 1-3.565 3.565h-99.833c-0.04 0-0.074-0.022-0.114-0.023-13.966-0.245-24.844-11.351-24.844-25.513 0-13.444 11.354-24.38 25.31-24.38 0.18 0 0.334 0.077 0.506 0.102 0.434-0.36 0.73-0.869 0.73-1.432 0-1.274-0.87-2.235-2.026-2.235h-22.364c-0.057 0-0.104-0.03-0.16-0.032-13.874-0.342-24.655-11.406-24.655-25.504 0-13.231 11.006-24.011 24.658-24.348 0.055-0.003 0.102-0.032 0.158-0.032h67.096c14.192 0 25.306 11.215 25.306 25.536 0 13.444-11.351 24.38-25.306 24.38h-11.184c-1.156 0-2.026 0.961-2.026 2.235 0 0.542 0.27 1.038 0.676 1.397 0.114-0.011 0.213-0.067 0.331-0.067h53.482c1.971 0 3.565 1.595 3.565 3.565s-1.595 3.565-3.565 3.565h-50.595c-0.551 0.348-1.166 0.602-1.867 0.602-5.049 0-9.157-4.067-9.157-9.063 0-5.164 4.109-9.366 9.157-9.366h11.184c9.854 0 18.175-7.9 18.175-17.249 0-10.32-7.984-18.405-18.175-18.405H228.12c-9.854 0-18.179 7.9-18.179 17.249 0 10.32 7.984 18.405 18.179 18.405h21.87c5.049 0 9.157 4.203 9.157 9.366 0 4.997-4.109 9.063-9.157 9.063-0.553 0-1.06-0.149-1.526-0.373-8.798 1.128-15.862 8.421-15.862 17.02 0 10.32 7.984 18.405 18.179 18.405h99.481a3.564 3.564 0 0 1 3.561 3.567zM504.87 386.972a2.893 2.893 0 0 0-4.084-0.003l-10.615 10.613-10.611-10.609a2.894 2.894 0 0 0-4.084 0.003 2.89 2.89 0 0 0 0.003 4.084l10.607 10.606-10.611 10.609a2.885 2.885 0 1 0 2.04 4.93c0.738 0 1.48-0.282 2.04-0.843l10.615-10.613 10.611 10.61c0.564 0.561 1.302 0.843 2.04 0.843a2.885 2.885 0 0 0 2.041-4.93l-10.607-10.606 10.611-10.609a2.89 2.89 0 0 0 0.004-4.085z m154.599 0a2.893 2.893 0 0 0-4.084-0.003l-10.613 10.612-10.609-10.609a2.9 2.9 0 0 0-4.084 0 2.893 2.893 0 0 0 0 4.084l10.608 10.608-10.612 10.61a2.885 2.885 0 1 0 2.041 4.93c0.738 0 1.48-0.282 2.04-0.843l10.615-10.614 10.61 10.61a2.895 2.895 0 0 0 4.084 0 2.893 2.893 0 0 0 0-4.084l-10.61-10.61 10.61-10.609a2.887 2.887 0 0 0 0.004-4.082z m183.001 78.057v55.212c0 20.233-16.469 36.696-36.71 36.696h-79.01v10.543h55.574c5.891 0 10.682 4.808 10.682 10.721v74.032c0 5.912-4.791 10.721-10.682 10.721h-15.809l-10.777 36.522c49.62 17.935 85.183 65.503 85.183 121.232 0 38.815-17.695 75.31-47.187 99.576 4.427-2.448 9.547-3.845 15.059-3.845 16.146 0 29.279 13.795 29.279 30.749 0 0.888-0.357 1.674-0.893 2.298h1.279c1.971 0 3.565 1.595 3.565 3.565s-1.595 3.565-3.565 3.565H727.603a3.563 3.563 0 0 1-3.565-3.565c0-1.25 0.68-2.295 1.652-2.932a3.492 3.492 0 0 1-1.143-1.203c-4.143 0.398-8.323 0.66-12.494 0.66-50.765 0-94.754-29.515-115.748-72.277H462.85c0.001 0.08 0.011 0.157 0.011 0.237h8.217a3.563 3.563 0 0 1 3.565 3.565 3.563 3.563 0 0 1-3.565 3.565h-28.21a3.563 3.563 0 0 1-3.565-3.565 3.563 3.563 0 0 1 3.565-3.565h12.855c-0.079-8.641-6.808-15.916-14.784-15.916-8.821 0-15.729 6.982-15.807 15.916h3.227a3.563 3.563 0 0 1 3.565 3.565 3.563 3.563 0 0 1-3.565 3.565H383.06a3.563 3.563 0 0 1-3.565-3.565c0-0.699 0.253-1.313 0.6-1.863-0.233-0.474-0.391-0.989-0.391-1.553 0-13.008 10.084-23.196 22.953-23.196 7.883 0 14.787 4.437 18.654 11.058 0.562-0.94 1.166-1.849 1.851-2.691-17.198-61.373-52.255-181.158-57.747-199.902H354.84c-5.891 0-10.682-4.809-10.682-10.721V578.2c0-5.912 4.791-10.721 10.682-10.721h55.578v-20.226h-14.105a3.563 3.563 0 0 1-3.565-3.565 3.563 3.563 0 0 1 3.565-3.565h14.105V481.85h-66.375c-17.608 0-31.932-14.338-31.932-31.964v-47.503c0-14.823 9.636-27.415 22.963-31.903l-49.379-85.526-142.031 82a10.63 10.63 0 0 1-5.331 1.438c-0.93 0-1.87-0.125-2.792-0.373-2.761-0.738-5.066-2.497-6.483-4.955l-63.57-110.103a10.596 10.596 0 0 1-1.069-8.099 10.658 10.658 0 0 1 5.003-6.497l293.67-169.547a10.658 10.658 0 0 1 8.12-1.065 10.596 10.596 0 0 1 6.487 4.955l63.569 110.104c2.939 5.097 1.173 11.643-3.935 14.596l-145.462 83.981 50.512 87.489a33.97 33.97 0 0 1 3.393-0.172c18.565 0 33.666 15.108 33.666 33.677v15.543h30.975v-42.058c0-1.777 0.076-3.536 0.134-5.299h-14.24a3.563 3.563 0 0 1-3.565-3.565 3.563 3.563 0 0 1 3.565-3.565h14.64c2.65-33.896 16.004-64.82 36.712-89.379l-9.701-9.698a3.564 3.564 0 0 1 0-5.042 3.564 3.564 0 0 1 5.042 0l9.381 9.378c27.237-29.513 65.524-48.677 108.234-50.805v-14.464c0-1.971 1.595-3.565 3.565-3.565s3.565 1.595 3.565 3.565v14.283c0.279-0.002 0.553-0.021 0.832-0.021 49.382 0 93.536 22.761 122.564 58.33l10.611-10.611a3.564 3.564 0 0 1 5.042 0 3.564 3.564 0 0 1 0 5.042l-11.231 11.231c17.253 23.203 28.266 51.285 30.648 81.756h14.64a3.563 3.563 0 0 1 3.565 3.565 3.563 3.563 0 0 1-3.565 3.565h-14.24c0.059 1.763 0.135 3.522 0.135 5.299v75.912h14.105a3.563 3.563 0 0 1 3.565 3.565 3.563 3.563 0 0 1-3.565 3.565H726.75v24.638h37.914v-18.52c0-21.452 17.451-38.903 38.903-38.903 21.452 0.001 38.903 17.452 38.903 38.904zM433.767 191.231c1.734-1.003 2.315-3.134 1.323-4.854L371.521 76.273a3.502 3.502 0 0 0-2.152-1.633 3.552 3.552 0 0 0-2.709 0.352L72.988 244.542a3.565 3.565 0 0 0-1.682 2.169 3.505 3.505 0 0 0 0.359 2.685l4.552 7.885c0.151-0.252 0.342-0.482 0.615-0.639l38.252-22.086a1.776 1.776 0 0 1 2.434 0.651 1.779 1.779 0 0 1-0.651 2.434l-38.252 22.086a1.77 1.77 0 0 1-0.853 0.23l57.472 99.544a3.505 3.505 0 0 0 2.148 1.633c0.93 0.251 1.891 0.118 2.716-0.355l293.669-169.548z m-23.35 283.488v-49.662h-38.106v-22.674c0-14.638-11.905-26.546-26.535-26.546-14.631 0-26.535 11.908-26.535 26.546v47.503c0 13.694 11.125 24.833 24.801 24.833h66.375z m-23.568 402.815h30.594c-0.079-8.641-6.812-15.916-14.787-15.916-8.821 0.001-15.728 6.982-15.807 15.916z m367.892 46.034c-13.217 0-23.572 10.372-23.572 23.618 0 0.888-0.357 1.674-0.893 2.298h47.506c-0.536-0.624-0.893-1.41-0.893-2.298 0-12.803-10.143-23.618-22.148-23.618z m54.053 0c-13.217 0-23.572 10.372-23.572 23.618 0 0.888-0.357 1.674-0.893 2.298h47.506c-0.536-0.624-0.893-1.41-0.893-2.298 0-12.803-10.143-23.618-22.148-23.618z m-22.125 2.127a128.003 128.003 0 0 1-7.34 4.859 31.208 31.208 0 0 1 1.742 3.275 30.182 30.182 0 0 1 5.598-8.134z m-74.616-226.726c-67.127 0-121.741 54.61-121.741 121.737s54.613 121.737 121.741 121.737c4.168 0 8.342-0.265 12.472-0.684 2.494-14.562 14.855-25.322 30.216-25.322 7.805 0 14.889 3.244 20.143 8.491 36.382-21.99 58.906-61.638 58.906-104.221 0-67.128-54.61-121.738-121.737-121.738z m47.026-36.016H372.844c6.968 23.799 39.346 134.504 56.283 194.773a22.935 22.935 0 0 1 11.813-3.238c9.603 0 17.762 6.572 20.724 15.679h131.404c-6.359-15.239-9.886-31.943-9.886-49.46 0-71.058 57.813-128.868 128.871-128.868 12.825 0 25.207 1.909 36.907 5.413l10.119-34.299zM726.75 574.61H354.84c-1.957 0-3.552 1.612-3.552 3.59v74.032c0 1.978 1.595 3.59 3.552 3.59h427.485c1.957 0 3.552-1.612 3.552-3.59V578.2c0-1.978-1.595-3.59-3.552-3.59H726.75z m-7.131-17.674V375.868c0-83.287-67.754-151.048-151.037-151.048-44.448 0-84.464 19.31-112.126 49.973-0.099 0.75-0.378 1.484-0.955 2.06-0.451 0.451-1.002 0.702-1.576 0.86-22.648 26.422-36.377 60.705-36.377 98.154v191.612h302.071v-10.543z m115.72-91.907c0-17.521-14.251-31.772-31.772-31.772s-31.772 14.251-31.772 31.772v25.651H726.75v59.126h79.011c16.309 0 29.579-13.263 29.579-29.565v-55.212z m71.128-322.214h24.958c15.996 0 28.524-12.023 28.524-27.368 0-14.401-12.796-26.114-28.524-26.114h-74.874c-15.996 0-28.524 12.023-28.524 27.368 0 14.401 12.796 26.114 28.524 26.114h10.696c1.999 0 3.565 1.65 3.565 3.757 0 1.828-1.633 3.374-3.565 3.374a3.563 3.563 0 0 0-3.565 3.565 3.563 3.563 0 0 0 3.565 3.565c5.898 0 10.696-4.711 10.696-10.505 0-6.104-4.697-10.888-10.696-10.888h-10.696c-11.595 0-21.393-8.694-21.393-18.983 0-11.347 9.398-20.237 21.393-20.237h74.874c11.595 0 21.393 8.694 21.393 18.983 0 11.347-9.398 20.237-21.393 20.237h-24.958c-5.999 0-10.696 4.784-10.696 10.888 0 5.794 4.798 10.505 10.696 10.505 11.595 0 21.393 8.694 21.393 18.983 0 11.347-9.398 20.237-21.393 20.237H735.326c-11.595 0-21.393-8.694-21.393-18.983 0-11.347 9.398-20.237 21.393-20.237h117.66a3.563 3.563 0 0 0 3.565-3.565 3.563 3.563 0 0 0-3.565-3.565H731.76c-0.61 0-1.157 0.193-1.659 0.462-13.413 2.295-23.299 13.28-23.299 26.906 0 14.401 12.796 26.114 28.524 26.114h171.142c15.996 0 28.524-12.023 28.524-27.368 0-14.401-12.796-26.114-28.524-26.114-1.932 0-3.565-1.546-3.565-3.374-0.001-2.106 1.566-3.757 3.564-3.757zM711.966 824.188c0 0.947 0.376 1.852 1.045 2.521l40.066 40.063a3.556 3.556 0 0 0 2.521 1.045 3.564 3.564 0 0 0 2.521-6.087l-39.021-39.018v-71.619a3.563 3.563 0 0 0-3.565-3.565 3.563 3.563 0 0 0-3.565 3.565v73.095zM368.28 208.637l-58.84 33.973a1.778 1.778 0 0 0-0.651 2.434 1.779 1.779 0 0 0 2.433 0.651l58.84-33.973a1.778 1.778 0 0 0 0.651-2.434 1.771 1.771 0 0 0-2.433-0.651z m58.084-33.534l-36.643 21.156a1.778 1.778 0 0 0-0.651 2.434 1.779 1.779 0 0 0 2.433 0.651l36.643-21.156a1.778 1.778 0 0 0 0.651-2.434 1.77 1.77 0 0 0-2.433-0.651z m-255.991 63.081l4.735 8.202 4.468-2.58-7.103-12.303-23.442 13.535a80.163 80.163 0 0 0-6.036-5.084l-4.35 3.491c1.908 1.184 3.86 2.586 5.857 4.208l-23.993 13.852 7.068 12.241 4.468-2.58-4.7-8.14 43.028-24.842z m28.036 8.133c5.439-6.976 9.291-14.015 11.592-21.055l-4.592-1.593c-2.1 6.681-5.823 13.237-11.23 19.704l4.23 2.944z m19.544-30.463l-0.312 4.832c7.492-0.734 15.427-0.419 23.743 0.981l0.354-5.182c-7.701-1.184-15.662-1.403-23.785-0.631z m-61.206 35.338l-0.312 4.832c7.492-0.735 15.427-0.42 23.743 0.981l0.354-5.182c-7.701-1.185-15.662-1.403-23.785-0.631z m32.036-12.784l4.468-2.58-4.7-8.14 43.028-24.842 4.735 8.202 4.468-2.58-7.103-12.303-23.441 13.535a80.163 80.163 0 0 0-6.036-5.084l-4.35 3.491c1.907 1.184 3.86 2.586 5.857 4.208l-23.993 13.852 7.067 12.241z m-44.581 20.598c-2.101 6.68-5.823 13.237-11.23 19.704l4.23 2.944c5.439-6.976 9.291-14.015 11.592-21.055l-4.592-1.593z m229.137-99.404c2.742 5.598 3.968 9.134 3.519 10.618-0.607 1.493-2.038 2.972-4.364 4.315l-26.931 15.549c-2.816 1.626-5.036 1.03-6.591-1.662l-13.464-23.32 11.437-10.439 12.51 21.667 4.346-2.509-13.075-22.646 12.372-11.223c4.947 8.569 7.652 13.536 8.272 14.892 1.294 3.089 0.979 5.229-0.857 6.289-1.408 0.813-3.034 1.67-4.906 2.67l3.592 3.394 2.815-1.626c4.713-2.721 6.214-6.199 4.574-10.312-1.065-2.976-5.237-10.768-12.446-23.254l-15.994 14.702-8.34-14.445-4.346 2.509 8.905 15.424-11.402 10.5-7.809-13.527-4.346 2.509 8.375 14.506-8.46 7.822 2.474 4.284 8.495-7.761 13.287 23.014c2.968 5.141 6.901 6.298 11.92 3.401l28.767-16.609c3.673-2.12 5.854-4.278 6.52-6.376 0.534-2.185-0.81-6.633-4.031-13.342l-4.818 0.986z m-94.062 55.042c5.298 0.695 9.807 1.438 13.466 2.263l-0.95 5.281c-3.633-0.922-7.862-1.744-12.687-2.468-0.575 6.779-2.395 13.379-5.461 19.801l-5.023-1.915c3.146-6.141 4.959-12.33 5.563-18.635-4.596-0.611-9.605-1.228-14.954-1.73-1.212-6.482-2.917-13.25-5.088-20.403l-7.161 4.135-2.474-4.284 8.079-4.665c-1.386-4.096-2.842-8.315-4.456-12.525l4.68-2.212a482.08 482.08 0 0 1 4.306 12.122l12.731-7.35 1.484 2.571c5.184 10.389 7.841 20.362 7.945 30.014z m-4.912-0.592c-0.09-8.354-2.179-16.777-6.205-25.307l-9.487 5.477c2.277 7.336 3.831 13.702 4.713 18.905 3.91 0.272 7.603 0.589 10.979 0.925z m27.294 1.053l2.156 3.733-4.284 2.474-27.669-47.925 21.116-12.191 27.669 47.925-4.284 2.474-2.156-3.734-12.548 7.244z m10.074-11.529l-20.566-35.622-12.547 7.244 20.567 35.622 12.546-7.244z m-137.767 85.497l-8.375-14.506 18.79-10.849-2.403-4.162-41.926 24.206 2.403 4.162 18.668-10.778 8.375 14.506-23.809 13.746 2.438 4.223 52.209-30.143-2.438-4.223-23.932 13.818z m61.206-35.337l-8.375-14.506 18.79-10.849-2.403-4.162-41.926 24.206 2.403 4.162 18.668-10.778 8.375 14.506-23.809 13.746 2.438 4.223 52.209-30.143-2.438-4.223-23.932 13.818z" p-id="15767" fill="#e16531"></path></svg>