<?xml version="1.0" standalone="no"?><!DOCTYPE svg PUBLIC "-//W3C//DTD SVG 1.1//EN" "http://www.w3.org/Graphics/SVG/1.1/DTD/svg11.dtd"><svg t="1537498275441" class="icon" style="" viewBox="0 0 1040 1024" version="1.1" xmlns="http://www.w3.org/2000/svg" p-id="50463" xmlns:xlink="http://www.w3.org/1999/xlink" width="48.75" height="48"><defs><style type="text/css"></style></defs><path d="M138.995681 485.804385c-88.559988-92.477204-88.559988-220.871433 0-313.292356 88.564082-92.477204 182.614108-57.71754 271.183306 34.831296l101.692077 104.347556 101.650121-104.415095c88.559988-92.538603 182.548616-127.359666 271.112698-34.821063 82.541925 86.275969 87.116103 203.279776 15.789615 293.714462l84.160795 0c59.286268-103.570867 52.602032-242.561431-32.111349-328.534502-135.739521-137.669476-274.068006-103.207593-372.815007 0l-67.786873 69.641103-67.776639-69.641103c-98.803283-103.207593-237.434667-139.723252-372.815007 0-99.412151 102.597703-92.538603 278.404778 6.264681 381.673769l434.270684 453.963189 30.667463-32.04995L542.482245 837.360206l-30.611182 31.383778L138.995681 485.804385 138.995681 485.804385 138.995681 485.804385zM138.995681 485.804385" p-id="50464" fill="#777777"></path><path d="M1024.469698 627.508757 844.204078 627.508757 844.204078 451.952392 723.707726 451.952392l0 175.557388L543.511691 627.50978l0 120.79925 180.197058 0 0 175.623903 120.496351 0L844.205101 748.308007l180.264597 0L1024.469698 627.508757 1024.469698 627.508757zM1024.469698 627.508757" p-id="50465" fill="#777777"></path></svg>