<?xml version="1.0" standalone="no"?><!DOCTYPE svg PUBLIC "-//W3C//DTD SVG 1.1//EN" "http://www.w3.org/Graphics/SVG/1.1/DTD/svg11.dtd"><svg t="1544670143461" class="icon" style="" viewBox="0 0 1024 1024" version="1.1" xmlns="http://www.w3.org/2000/svg" p-id="18161" xmlns:xlink="http://www.w3.org/1999/xlink" width="81" height="81"><defs><style type="text/css"></style></defs><path d="M918.85568 260.67968H692.736l-122.94144-127.23712c5.08928-9.43616 8.25856-20.10112 8.25856-31.5648 0-36.56192-29.4912-66.29888-65.7152-66.29888-36.23936 0-65.67424 29.73696-65.67424 66.29888 0 11.46368 3.16928 22.12864 8.25856 31.54944L331.9808 260.67968H105.856c-30.464 0-57.20064 27.45856-57.20064 58.75712v587.01824c0 30.74048 25.68192 55.77728 57.20064 55.77728h812.99968c31.15008 0 56.48896-25.0368 56.48896-55.77728V319.4368c0-31.30368-26.3936-58.75712-56.48896-58.75712zM482.52928 160.6656c8.99072 4.67968 19.02592 7.56224 29.80864 7.56224s20.8384-2.88256 29.81376-7.56224l96.62976 100.00896H385.92L482.52928 160.6656z m-217.88672 370.97472c-31.0016 0-56.18176-25.45664-56.18176-56.7552 0-31.22688 25.18016-56.68352 56.18176-56.68352 30.99648 0 56.18176 25.45664 56.18176 56.68352 0 31.29856-25.18528 56.7552-56.18176 56.7552z m542.73536 283.62752a5.376 5.376 0 0 1-5.35552 5.35552H321.27488l186.26048-263.34208 73.69216 99.50208c3.73248 5.05344 9.61536 7.69536 16.17408 7.80288a19.24096 19.24096 0 0 0 15.59552-8.93952l99.57376-156.74368 94.81216 136.51456v179.85024z" p-id="18162" fill="#00BFFF"></path></svg>