<?xml version="1.0" standalone="no"?><!DOCTYPE svg PUBLIC "-//W3C//DTD SVG 1.1//EN" "http://www.w3.org/Graphics/SVG/1.1/DTD/svg11.dtd"><svg t="1544855364260" class="icon" style="" viewBox="0 0 1024 1024" version="1.1" xmlns="http://www.w3.org/2000/svg" p-id="16824" xmlns:xlink="http://www.w3.org/1999/xlink" width="128" height="128"><defs><style type="text/css"></style></defs><path d="M642.986667 480 604.586667 519.253333C573.866667 549.973333 554.666667 576 554.666667 640L469.333333 640 469.333333 618.666667C469.333333 571.306667 488.533333 528.64 519.253333 497.92L572.16 444.16C587.946667 428.8 597.333333 407.466667 597.333333 384 597.333333 336.64 558.933333 298.666667 512 298.666667 465.066667 298.666667 426.666667 337.066667 426.666667 384L341.333333 384C341.333333 289.706667 417.706667 213.333333 512 213.333333 606.293333 213.333333 682.666667 289.706667 682.666667 384 682.666667 421.546667 667.306667 455.253333 642.986667 480M554.666667 810.666667 469.333333 810.666667 469.333333 725.333333 554.666667 725.333333M512 85.333333C276.48 85.333333 85.333333 276.48 85.333333 512 85.333333 747.52 276.48 938.666667 512 938.666667 747.52 938.666667 938.666667 747.52 938.666667 512 938.666667 276.053333 746.666667 85.333333 512 85.333333Z" p-id="16825" fill="#00b642"></path></svg>