<?xml version="1.0" standalone="no"?><!DOCTYPE svg PUBLIC "-//W3C//DTD SVG 1.1//EN" "http://www.w3.org/Graphics/SVG/1.1/DTD/svg11.dtd"><svg t="1536725938632" class="icon" style="" viewBox="0 0 1025 1024" version="1.1" xmlns="http://www.w3.org/2000/svg" p-id="13942" xmlns:xlink="http://www.w3.org/1999/xlink" width="48.046875" height="48"><defs><style type="text/css"></style></defs><path d="M512.026875 0C229.23903 0 0 229.23903 0 512.026875 0 794.77597 229.23903 1024 512.026875 1024c282.779095 0 512.003125-229.22403 512.003125-511.973125C1024.03 229.23903 794.80597 0 512.026875 0zM504.204365 753.135919c-13.002516 0-23.583779-10.576263-23.583779-23.577529 0-13.003766 10.581263-23.580029 23.583779-23.580029 13.003766 0 23.580029 10.576263 23.580029 23.580029C527.784394 742.559656 517.208131 753.135919 504.204365 753.135919zM588.466968 530.593148c-37.261295 18.812523-69.438835 35.062543-69.438835 73.90009l0 59.946323c0 8.19001-6.655008 14.843768-14.838768 14.843768-8.17876 0-14.830018-6.653758-14.830018-14.843768l0-59.946323c0-57.11007 45.567556-80.101348 85.767605-100.386373 41.24505-20.825025 80.181348-40.487549 80.181348-93.510114 0-31.715039-14.805018-60.161323-41.685051-80.102598-26.411282-19.600024-62.162576-29.956287-103.392626-29.956287-72.232588 0-120.465147 43.617553-136.231416 86.850106-4.897506 13.447516-6.655008 30.293787-4.272505 40.96755 1.777502 7.99251-3.251254 15.946269-11.211264 17.723772-1.058751 0.235-2.137503 0.3525-3.217504 0.3525-6.918758 0-13.032516-4.873756-14.531268-11.582514-4.101255-18.388772-0.26375-42.192552 5.356257-57.62757 23.203778-63.612578 89.151359-106.35763 164.1077-106.35763 102.890126 0 174.750213 57.46132 174.745213 139.732671C684.975836 481.919338 633.702024 507.77937 588.466968 530.593148z" p-id="13943" fill="#50d1fe"></path><path d="M512.026875 999.03872" p-id="13944" fill="#50d1fe"></path></svg>