<?xml version="1.0" standalone="no"?><!DOCTYPE svg PUBLIC "-//W3C//DTD SVG 1.1//EN" "http://www.w3.org/Graphics/SVG/1.1/DTD/svg11.dtd"><svg t="1538193808020" class="icon" style="" viewBox="0 0 1024 1024" version="1.1" xmlns="http://www.w3.org/2000/svg" p-id="8757" xmlns:xlink="http://www.w3.org/1999/xlink" width="48" height="48"><defs><style type="text/css"></style></defs><path d="M512 0h-8.942933A518.417067 518.417067 0 0 0 0 512a517.188267 517.188267 0 0 0 512 512h8.942933A517.051733 517.051733 0 0 0 1024 520.328533v-17.271466A518.3488 518.3488 0 0 0 512 0z m43.076267 819.2a69.154133 69.154133 0 0 1-49.3568 18.8416 69.973333 69.973333 0 0 1-49.288534-19.6608 69.290667 69.290667 0 0 1 0-96.8704 69.0176 69.0176 0 0 1 49.288534-18.363733 71.338667 71.338667 0 0 1 50.244266 18.8416 66.56 66.56 0 0 1 19.729067 48.401066 65.809067 65.809067 0 0 1-20.616533 48.810667z m129.092266-346.9312c-8.123733 8.942933-34.133333 33.1776-77.141333 70.8608a138.4448 138.4448 0 0 0-35.84 44.782933 126.1568 126.1568 0 0 0-13.653333 58.299734v12.4928H454.656V646.485333c0-34.133333 5.393067-63.6928 17.954133-87.8592s46.557867-61.8496 104.8576-113.8688l10.717867-12.561066A99.054933 99.054933 0 0 0 612.420267 368.64 97.8944 97.8944 0 0 0 587.093333 298.5984c-16.9984-16.9984-40.96-25.053867-71.68-25.053867-39.458133 0-67.242667 11.6736-84.309333 36.727467-15.223467 20.48-22.391467 50.244267-22.391467 87.8592h-102.4c0-66.286933 18.8416-118.306133 58.231467-155.989333s90.589867-56.456533 157.013333-56.456534c58.299733 0 105.813333 15.223467 141.653334 47.786667s53.794133 74.410667 53.794133 129.092267c0.273067 44.509867-11.332267 81.169067-32.836267 109.9776z" fill="#FF7200" p-id="8758"></path></svg>