<?xml version="1.0" standalone="no"?><!DOCTYPE svg PUBLIC "-//W3C//DTD SVG 1.1//EN" "http://www.w3.org/Graphics/SVG/1.1/DTD/svg11.dtd"><svg t="1537411859866" class="icon" style="" viewBox="0 0 1024 1024" version="1.1" xmlns="http://www.w3.org/2000/svg" p-id="11075" xmlns:xlink="http://www.w3.org/1999/xlink" width="48" height="48"><defs><style type="text/css"></style></defs><path d="M1023.21664 498.80064c0.37888 4.7104 0.03072 9.55392-1.24416 14.37696l-92.08832 406.46144a42.60352 42.60352 0 0 1-6.12864 13.21984c-9.86112 19.69664-24.8576 37.10976-44.8 49.792a125.16352 125.16352 0 0 1-67.6352 19.54304v-0.256l-591.50336-0.25088c-2.06848 0.3072-4.15744 0.51712-6.31296 0.51712-2.16064 0-4.26496-0.2048-6.3488-0.52224l-157.3376-0.06656a42.5984 42.5984 0 0 1-6.77376 0.5888 42.61376 42.61376 0 0 1-42.61376-42.61376L0.8192 447.97952a42.61888 42.61888 0 0 1 42.624-42.61376c1.75616 0 3.4816 0.13824 5.18656 0.34816l141.42976-0.32768v-0.80384c130.1248-9.31328 233.23648-115.98848 236.91776-247.59808-0.3328-3.70176-0.5632-7.424-0.5632-11.2128 0-68.46976 55.5008-123.97568 123.97568-123.97568 58.83904 0 107.99616 41.03168 120.69376 96.00512l0.62464-0.08192a448.38912 448.38912 0 0 1 10.78272 97.45408 445.30688 445.30688 0 0 1-24.9344 147.29216l237.86496 0.256c2.18624 0 4.3264 0.22016 6.43072 0.54272 40.61184 1.59232 79.72864 22.50752 102.77376 59.648a125.696 125.696 0 0 1 18.59072 75.88864M85.69856 916.4032l85.22752 0.03584 0.31744-425.7792-85.1456 0.18944-0.39936 425.55392z m846.99648-448.96768a41.07264 41.07264 0 0 0-37.16608-19.36896v-0.12288h-0.1024l-300.672-0.31232a42.624 42.624 0 0 1-42.61376-42.624c0-6.77376 1.62816-13.16352 4.44416-18.85184l-0.45568-0.37376a361.28256 361.28256 0 0 0 36.43392-102.68672l0.53248 0.01536s5.66784-23.0144 5.59104-67.1488c-0.05632-34.9696-6.43072-66.88768-6.43072-66.88768h-0.32256c0.03072-0.6144 0.1024-1.22368 0.1024-1.85344a39.85408 39.85408 0 0 0-79.71328 0c0 0.9216 0.08192 1.82784 0.13824 2.73408l-0.55296 0.00512s0.67584 33.26976-5.9648 67.77856c-2.82112 14.63808-6.784 28.288-10.3936 39.10144a13.56288 13.56288 0 0 1-0.2048-0.1024C459.4688 366.39744 369.27488 451.39968 256.5632 480.03584l-0.4096 436.43392 555.3664 0.22528c1.87904 0 3.712 0.16384 5.52448 0.4096a39.55712 39.55712 0 0 0 16.04608-5.85216 39.62368 39.62368 0 0 0 15.36-18.23232l0.11264 0.06144 88.66304-391.33696-0.34304-0.1024a40.98048 40.98048 0 0 0-4.18816-34.2016" p-id="11076" fill="#666666"></path></svg>