<?xml version="1.0" standalone="no"?><!DOCTYPE svg PUBLIC "-//W3C//DTD SVG 1.1//EN" "http://www.w3.org/Graphics/SVG/1.1/DTD/svg11.dtd"><svg t="1538985338324" class="icon" style="" viewBox="0 0 1024 1024" version="1.1" xmlns="http://www.w3.org/2000/svg" p-id="58399" xmlns:xlink="http://www.w3.org/1999/xlink" width="128" height="128"><defs><style type="text/css"></style></defs><path d="M74.5 495.5l50.1 26.9s22.8 13.6 34.8-11.8l124.1-270.4s11.7-23.1-7.4-34l-54.7-27.8s-17-9.8-28 10.9C193 197.6 66 464.8 66 464.8s-8.1 21.9 8.5 30.7z m818.4 27.4l51.2-24.5s24.5-10.3 12.7-35.9L829.1 193.9s-10.2-23.8-30.3-14.9l-54.7 27.6s-17.9 7.8-9.1 29.7c6.1 5.5 129.6 274.6 129.6 274.6s11.5 20.1 28.3 12z m-697-0.9l16.9-37.3 59.3 78s38.6-9.2 52.1 15.9c0 0 12.7 15.3 7.2 44.1 0 0 8 6 8.6 9.8 0 0 26.5-6.7 42.5 13 0 0 14.7 12.2 13 35.9 0 0 10.5 4.7 12.7 11.2 0 0 26.1-6.7 38.7 9.1 0 0 15.5 15 14.3 32.7l24.2 18.4s22.6 2 26.2 20.4l21.7 16.7s34.7 14.3 36.7-21.8l-81.5-64.7s-9.6-26.1 20.3-22l121.5 89.2s19.9 8.8 31.9-10.8c0 0 11.7-17-4.9-35.3L528 627.2s-11.4-27.2 17.9-25.1l153.4 113.1s21.8 9 30.9-7.9c0 0 12.4-16.9 0-34.3L561.1 544.2s-10.2-30.9 21.5-22.9l174.6 129.5s26.4 8.7 38.2-13.8c0 0 15-24.1-5.1-44l-247-224.4s-45.9-22.9-73.3 24.9c0 0-4.8 77.9-87.9 92.1 0 0-56.7-4.5-43.5-43.3 0 0 16.6-22.9 15.2-71.2 0 0 1.9-34.6 24.9-64.2h-88.9l19.5-42.2h134.3s55.2-32.6 96.8-29.5c0 0 54.3 3 68.8 11.7 0 0 71.9 23.9 104.1 18.3l120.2 259.5-19.1 45.4s35.2 37.7 9.2 83.3c-7.2 15.3-25.8 30.1-56.1 31.6 0 0 4.6 30.8-16.6 48.2 0 0-15.6 22.3-53.5 16.2 0 0 2.2 27.2-22.9 45.3 0 0-29.9 26.7-76-5.8 0 0-7.3 30.6-44.2 36.9 0 0-26.9 4.4-42.5-11.4 0 0-28.1 55.2-68.2 24.1 0 0-25.4-21.9-7.6-52.9 0 0-34.2 56.2-74.7 14 0 0-22.5-17.6-1.7-54.5 0 0-32.2 38.2-67.7 3.6 0 0-24.2-20.6-4.9-58.9 0 0-33 40.6-71.3 1.9 0 0-16.1-15.5-6.8-49.8L246 589c0-0.1-50.1-67-50.1-67z" p-id="58400" fill="#ff0000"></path></svg>