<?xml version="1.0" standalone="no"?><!DOCTYPE svg PUBLIC "-//W3C//DTD SVG 1.1//EN" "http://www.w3.org/Graphics/SVG/1.1/DTD/svg11.dtd"><svg t="1538983603396" class="icon" style="" viewBox="0 0 1024 1024" version="1.1" xmlns="http://www.w3.org/2000/svg" p-id="47582" xmlns:xlink="http://www.w3.org/1999/xlink" width="128" height="128"><defs><style type="text/css"></style></defs><path d="M866.078271 215.268832c-2.295276-1.176802-4.723581-2.084475-7.209192-2.77316l-319.404564-88.543615c-1.538029-0.426719-3.038196-0.974188-4.524037-1.559519-14.845103-5.850242-31.15865-6.001691-45.714158-0.429789-1.609661 0.61603-3.232624 1.193175-4.900613 1.627057l-321.976132 83.659375c-2.691295 0.698918-5.322216 1.642406-7.789407 2.924609-44.908816 23.332405-42.587957 38.449707 5.215792 61.253062 0.848321 0.405229 1.721201 0.76748 2.597151 1.109264l328.977593 128.320551c16.699334 7.564279 35.601846 7.704472 51.901067 0.384763L864.662015 277.779537c0.912789-0.350994 1.823532-0.723477 2.705622-1.144056C913.998677 254.43383 912.583444 239.10368 866.078271 215.268832zM512 264.075421c-29.206182 0-52.883441-13.106506-52.883441-29.274744 0-16.168238 23.676236-29.274744 52.883441-29.274744s52.883441 13.106506 52.883441 29.274744C564.883441 250.968915 541.207206 264.075421 512 264.075421zM471.313346 426.485371 159.314449 306.692031c-23.910573-9.18008-50.454112 7.372921-51.606355 32.959669-0.026606 0.598634-0.040932 1.200338-0.040932 1.806135l0 416.526555c0 20.456914 15.570627 37.276998 35.507702 39.254026 3.218298 0.319272 6.369058 1.12666 9.387811 2.286066l291.430442 111.895463c24.959461 9.583263 51.770084-8.842389 51.770084-35.577287L495.763201 462.063681C495.763201 446.286346 486.041792 432.140161 471.313346 426.485371zM203.370851 672.942529c-19.294438 0-34.935674-17.549701-34.935674-39.198767 0-21.649066 15.641235-39.198767 34.935674-39.198767 19.294438 0 34.935674 17.549701 34.935674 39.198767C238.306524 655.392828 222.665289 672.942529 203.370851 672.942529zM259.356956 523.570523c0-21.649066 15.641235-39.198767 34.935674-39.198767 19.294438 0 34.935674 17.549701 34.935674 39.198767 0 21.649066-15.641235 39.198767-34.935674 39.198767C274.998191 562.76929 259.356956 545.219589 259.356956 523.570523zM345.319793 726.984353c-19.294438 0-34.935674-17.549701-34.935674-39.198767 0-21.649066 15.641235-39.198767 34.935674-39.198767 19.294438 0 34.935674 17.549701 34.935674 39.198767C380.255467 709.434651 364.614232 726.984353 345.319793 726.984353zM916.291906 339.6517c-1.152243-25.586748-27.695782-42.139749-51.606355-32.958646L553.612747 426.130284c-14.728446 5.65479-24.449855 19.800975-24.449855 35.57831l0 413.778978c0 26.735921 26.811646 45.160549 51.770084 35.57831l290.50435-111.540376c3.018753-1.159406 6.169513-1.966795 9.387811-2.286066 19.936051-1.977028 35.507702-18.797112 35.507702-39.254026l0-416.526555C916.332838 340.852038 916.319535 340.250334 916.291906 339.6517zM687.812191 726.984353c-19.294438 0-34.935674-17.549701-34.935674-39.198767 0-21.649066 15.641235-39.198767 34.935674-39.198767 19.294438 0 34.935674 17.549701 34.935674 39.198767C722.747865 709.434651 707.10663 726.984353 687.812191 726.984353zM803.927769 576.453964c-19.294438 0-34.935674-17.549701-34.935674-39.198767 0-21.649066 15.641235-39.198767 34.935674-39.198767 19.294438 0 34.935674 17.549701 34.935674 39.198767C838.863443 558.904263 823.222207 576.453964 803.927769 576.453964z" p-id="47583" fill="#e0620d"></path></svg>