<?xml version="1.0" standalone="no"?><!DOCTYPE svg PUBLIC "-//W3C//DTD SVG 1.1//EN" "http://www.w3.org/Graphics/SVG/1.1/DTD/svg11.dtd"><svg t="1538983501041" class="icon" style="" viewBox="0 0 1024 1024" version="1.1" xmlns="http://www.w3.org/2000/svg" p-id="44941" xmlns:xlink="http://www.w3.org/1999/xlink" width="128" height="128"><defs><style type="text/css"></style></defs><path d="M904.270105 350.011652a11.107989 11.107989 0 0 0-0.230244-1.220804c-0.345877-1.731434-0.807389-3.40147-1.469468-5.008061l-67.614957-173.999916c-11.678994-35.966143-44.011376-58.300824-84.681658-58.300824H275.711436c-39.862893 0-70.834278 21.918195-82.058924 56.56632l-72.686463 177.546696c-0.341784 1.047866-0.722454 2.591011-1.037632 4.179182-5.279237 16.758686-7.93267 33.961486-7.93267 51.228755 0.058328 60.742433 32.304753 116.201535 84.079954 144.682193 21.315468 11.809977 46.435589 17.773805 74.643024 17.773806h0.086981c47.335075-0.116657 91.173512-21.617343 121.058146-58.419528 29.736255 36.465516 73.229838 57.845453 120.477932 58.148352 46.873564-0.36225 90.224908-21.827121 119.842459-58.298778 29.887704 36.800138 73.78754 58.239426 121.348766 58.239426 28.78765-0.179079 54.342676-6.412037 75.857688-18.635429 50.997488-28.774347 82.636069-84.031858 82.614579-144.116305 0.023536-17.292851-2.714831-34.590819-7.735171-50.365085z m-168.016645 29.074176H274.725992c-15.919575 0-28.841885-13.358239-28.841885-29.817096 0-16.45988 12.922311-29.820166 28.841885-29.820166h461.528491c15.950274 0 28.844955 13.360286 28.844956 29.820166-0.00307 16.460904-12.894681 29.817096-28.845979 29.817096z" fill="#FF7385" p-id="44942"></path><path d="M823.357284 587.853595c-2.974751 0-5.65172 0.86674-8.335853 1.757017-21.369703 8.741082-48.714492 13.452383-69.339228 12.289907-45.455261-2.505054-80.098269-11.875468-113.464191-41.240263-32.91669 29.010731-74.91113 45.530986-119.616308 45.949519-45.340651-0.301875-87.569428-12.048407-120.657011-41.12156-33.280987 29.340235-75.769684 43.620473-121.026424 43.620473h-0.171915c-27.630291 0-43.208081-5.424546-68.361971-15.025205-0.689708-0.355087-1.408069-0.533143-2.130523-0.804318-1.212618-0.476861-2.136663-0.807389-3.375887-1.28118 0 0-4.154623-0.74599-6.433526-0.74599h-0.056282c-15.923668 0-28.814256 13.382798-28.788673 29.877471l0.203637 215.138872c0 42.048675 33.140795 76.247568 73.897034 76.247568l542.779004-0.35304c40.695864-0.122797 73.806983-34.413787 73.806983-76.46144l-0.082888-218.034828c0-16.482393-12.894681-29.813003-28.845978-29.813003z" fill="#FF7385" p-id="44943"></path></svg>