<?xml version="1.0" standalone="no"?><!DOCTYPE svg PUBLIC "-//W3C//DTD SVG 1.1//EN" "http://www.w3.org/Graphics/SVG/1.1/DTD/svg11.dtd"><svg t="1544854921287" class="icon" style="" viewBox="0 0 1024 1024" version="1.1" xmlns="http://www.w3.org/2000/svg" p-id="25502" xmlns:xlink="http://www.w3.org/1999/xlink" width="81" height="81"><defs><style type="text/css"></style></defs><path d="M927.149 402.799 766.505 178.981l-75.81 223.819L927.149 402.8zM385.652 438.899l126.349 366.413 124.544-366.413L385.652 438.899zM652.791 402.799l79.42-252.699-79.42 0L385.652 150.1l-93.859 0 81.225 252.699L652.791 402.799zM531.856 868.487l1.805 1.805 391.683-431.393L678.06 438.899 531.856 868.487zM255.693 177.176 96.854 402.799l236.454 0L255.693 177.176zM96.854 438.899l393.488 435.003 0-7.22L345.942 438.899 96.854 438.899z" p-id="25503" fill="#f78e2d"></path></svg>