<?xml version="1.0" standalone="no"?><!DOCTYPE svg PUBLIC "-//W3C//DTD SVG 1.1//EN" "http://www.w3.org/Graphics/SVG/1.1/DTD/svg11.dtd"><svg t="1538192804671" class="icon" style="" viewBox="0 0 1024 1024" version="1.1" xmlns="http://www.w3.org/2000/svg" p-id="25300" xmlns:xlink="http://www.w3.org/1999/xlink" width="64" height="64"><defs><style type="text/css"></style></defs><path d="M868.9 402.9v-4.4h-3l-0.2-0.3-0.6 0.3h-68.5c-14.7-51.9-62.3-90-119-90s-104.3 38.1-119 90H459c-14.7-51.9-62.3-90-119-90s-104.3 38.1-119 90h-60l-9-5.2-45 77.9 39 22.5 29-50.2h42c5.7 63.1 58.6 112.5 123.2 112.5 64.5 0 117.5-49.4 123.2-112.5h91.1c5.7 63.1 58.6 112.5 123.2 112.5s117.5-49.4 123.2-112.5h40.4l30.9 45.3 41.6-20.3-44.9-65.6z m-528.8 108c-43.5 0-78.8-35.3-78.8-78.7 0-43.5 35.3-78.8 78.8-78.8s78.7 35.3 78.7 78.8c0.1 43.5-35.2 78.7-78.7 78.7z m337.5 0c-43.5 0-78.8-35.3-78.8-78.7 0-43.5 35.3-78.8 78.8-78.8s78.7 35.3 78.7 78.8c0.1 43.5-35.2 78.7-78.7 78.7zM418.9 668.4h180v45h-180z" fill="#FF4D4D" p-id="25301"></path><path d="M801.4 803.4c0 24.9-20.1 45-45 45h-495c-24.9 0-45-20.1-45-45v-225h-45v225c0 49.7 40.3 90 90 90h495c49.7 0 90-40.3 90-90v-225h-45v225zM216.4 218.4c0-24.9 20.1-45 45-45h495c24.9 0 45 20.1 45 45v90h45v-90c0-49.7-40.3-90-90-90h-495c-49.7 0-90 40.3-90 90v90h45v-90z" fill="#FF4D4D" p-id="25302"></path></svg>