<?xml version="1.0" standalone="no"?><!DOCTYPE svg PUBLIC "-//W3C//DTD SVG 1.1//EN" "http://www.w3.org/Graphics/SVG/1.1/DTD/svg11.dtd"><svg t="1538192713751" class="icon" style="" viewBox="0 0 1024 1024" version="1.1" xmlns="http://www.w3.org/2000/svg" p-id="22943" xmlns:xlink="http://www.w3.org/1999/xlink" width="64" height="64"><defs><style type="text/css"></style></defs><path d="M805.989133 388.843607c0-16.496646-12.695956-29.870116-28.354798-29.870116h-531.270323c-15.660494 0-28.354798 13.37347-28.354798 29.870116l-51.37541 495.208388c0 18.363941 14.913576 33.251078 33.310567 33.251077h624.11291c18.396991 0 33.310567-14.887136 33.310567-33.251077l-51.378715-495.208388z" fill="#FCA00D" p-id="22944"></path><path d="M511.999174 504.432496l37.317815 82.698051 90.183757 9.937977-67.12018 61.045687 18.418473 88.841948-78.799865-44.972074-78.799865 44.972074 18.418473-88.841948-67.121833-61.045687 90.185409-9.937977z" fill="#FFFFFF" p-id="22945"></path><path d="M651.699308 175.195271c-36.668393-55.283511-86.280614-85.728688-139.700134-85.728688s-103.031741 30.445177-139.700134 85.728688c-34.938253 52.672602-54.178006 122.3095-54.178006 196.080887 0 19.973451 1.44261 39.970036 4.286517 59.432873l2.582817 17.668249H699.006327l2.582817-17.668249a412.431018 412.431018 0 0 0 4.286517-59.432873c0.001652-73.77304-19.239752-143.408285-54.176353-196.080887z m11.150893 231.870165H361.148147a374.242349 374.242349 0 0 1-1.715268-35.789278c0-65.740365 16.795744-127.268574 47.2938-173.245352 28.766264-43.369175 66.151831-67.252378 105.272495-67.252378s76.506231 23.883204 105.272495 67.252378c30.498056 45.978431 47.2938 107.504987 47.2938 173.245352 0 11.97713-0.575061 23.955913-1.715268 35.789278z" fill="#FCA00D" p-id="22946"></path></svg>