<?xml version="1.0" standalone="no"?><!DOCTYPE svg PUBLIC "-//W3C//DTD SVG 1.1//EN" "http://www.w3.org/Graphics/SVG/1.1/DTD/svg11.dtd"><svg t="1544593697456" class="icon" style="" viewBox="0 0 1024 1024" version="1.1" xmlns="http://www.w3.org/2000/svg" p-id="12193" xmlns:xlink="http://www.w3.org/1999/xlink" width="81" height="81"><defs><style type="text/css"></style></defs><path d="M264.581446 394.266575h535.131836v385.66671h10.781555v-456.724069c0-42.634006-31.853475-76.937277-70.567196-76.937276H324.367087c-39.203884 0-70.567195 34.30327-70.567195 76.937276v456.724069h10.781554v-385.66671z m59.785641-136.723941h415.560554c32.832779 0 59.785641 29.402657 59.785641 65.666582v59.785641H264.581446v-59.785641c0-36.263925 26.952862-65.666582 59.785641-65.666582z" fill="#777777" p-id="12194"></path><path d="M391.994324 351.141382c15.681144 0 27.443026-12.741185 26.952862-28.42233 0-11.760858-7.350408-22.052249-18.131963-26.461675-10.781554-4.41045-23.032576-1.470491-31.363311 7.350409-8.330736 8.820899-10.29139 21.071921-4.900614 31.362288 4.900613 10.29139 16.171308 17.151635 27.443026 16.171308z m-16.662495-35.772738c2.939959-6.371104 9.801227-10.29139 16.171308-9.801227 9.311063 0.490164 16.171308 7.840572 16.171308 16.661472-0.490164 7.840572-4.900613 14.211676-10.781554 16.661471-6.370081 2.450818-13.721513 0.980327-18.622127-4.410449-4.898567-5.390777-5.878894-12.741185-2.938935-19.111267zM457.169719 352.121709c7.350408 0 14.211676-3.431146 19.11229-8.820899 4.900613-5.880941 7.840572-12.741185 7.840572-20.091594 0-11.760858-7.350408-22.052249-18.131963-26.462698-10.781554-4.41045-23.031553-1.470491-31.363311 7.351432-7.840572 8.330736-10.29139 21.071921-4.900614 31.852452 4.901637 10.781554 16.172331 17.151635 27.443026 16.171307z m-17.151635-36.753065c2.939959-6.371104 9.801227-10.29139 16.171308-9.801227 4.41045 0 8.330736 1.960655 11.271717 4.900614 2.939959 3.431146 4.41045 7.351432 4.41045 11.761881 0.490164 7.840572-3.920286 14.211676-10.290367 16.661472-6.371104 2.450818-13.721513 0.980327-18.622126-4.41045-4.900613-5.3918-5.880941-12.742209-2.940982-19.11229zM537.047977 321.248561h193.568601v11.761882h-193.568601zM692.890348 876.391151c-49.346895-59.497069-144.31278-56.816007-216.758765 4.547573-31.674397-40.750099-92.930529-47.696302-141.060713-14.061251-17.070794-18.720364-37.166481-35.057447-58.728566-47.741327-59.295478-33.813107-129.862673-43.614333-199.449541-26.461675l2.449795 11.270694c67.13605-16.171308 135.252427-7.350408 192.098109 24.992207 20.581758 13.231349 40.674375 28.912493 56.845683 47.044456h11.663644l0.588401 0.980328c0.479931-0.333598 0.962931-0.654916 1.444908-0.980328h1.00591c-0.12075-0.146333-0.245593-0.287549-0.366343-0.433882 46.225811-30.67258 104.159268-21.958104 130.229016 20.525476l1.612731-1.103124 1.328251 1.593288c68.304665-63.425541 161.860435-69.039399 208.625528-12.989849-0.281409 0.24764-0.564865 0.490164-0.845251 0.738827h17.641799c65.176418-52.435233 145.054677-70.567195 214.641545-49.00511v-12.251022c-73.02927-21.064758-155.893536-1.433652-222.966141 53.334719zM468.441437 590.775134c0-16.661472-11.270694-29.892821-25.482371-29.89282-14.211676 0-25.482371 13.721513-25.482371 29.89282s11.270694 29.892821 25.482371 29.892821c14.210653 0 25.482371-13.231349 25.482371-29.892821zM638.977461 741.709729l7.350409-8.330736c-58.316174-62.235436-154.364717-61.746296-213.661218 1.470491l7.350408 8.330736c55.377238-58.806337 144.075373-59.785641 198.960401-1.470491zM641.918443 596.165912c0-16.171308-11.270694-29.892821-25.482371-29.892821-14.211676 0.490164-25.482371 13.721513-25.482371 29.892821 0 16.172331 11.271718 29.892821 25.482371 29.89282s25.482371-13.231349 25.482371-29.89282zM325.837578 351.141382c15.681144 0 27.443026-12.741185 26.952862-28.42233 0-11.760858-7.350408-22.052249-18.131962-26.461675-10.781554-4.41045-23.032576-1.470491-31.362289 7.350409-7.840572 8.330736-10.29139 21.071921-4.900613 31.362288 5.389754 10.29139 16.171308 17.151635 27.442002 16.171308z m-17.151635-35.772738c2.940982-6.371104 9.801227-10.29139 16.171308-9.801227 8.820899 0.490164 16.171308 7.840572 15.681144 16.661472 0.980327 7.840572-3.430122 14.211676-10.290367 16.661471-6.371104 2.450818-13.721513 0.980327-18.622126-4.410449s-5.879917-12.741185-2.939959-19.111267zM344.459704 893.134487c-13.156648-2.192945-26.698059 0.729617-38.181601 7.687076-7.455809-8.114818-16.148795-15.045671-25.525349-19.938098-26.952862-15.190981-58.805314-19.111267-88.698135-11.760858l0.936325 4.681626c-0.312108 0.073678-0.62524 0.14224-0.936325 0.218987l0.980327 4.900614c28.912493-7.350408 59.785641-3.430122 85.758176 11.271717 9.311063 5.880941 17.641799 12.251022 24.992208 20.581758h2.939958l1.470491 2.450818c9.801227-7.351432 22.542412-10.29139 34.793434-8.820899 10.781554 1.470491 21.071921 7.840572 26.952862 17.641799l9.311063-6.371105c-7.351432-12.253068-20.582781-20.583804-34.793434-22.543435z m-128.246872-22.578228a116.953665 116.953665 0 0 1 20.941961 0.852414 122.863259 122.863259 0 0 0-20.941961-0.852414z" fill="#777777" p-id="12195"></path><path d="M713.955106 897.054773l7.350409 7.841595c23.032576-24.992207 51.454906-37.734416 75.956949-36.754088l1.470491-11.271718c-27.442002-1.469468-59.785641 12.741185-84.777849 40.184211zM127.204635 286.945291h8.596796v-18.365276h18.366299v-8.597819H135.801431v-18.3663h-8.596796v18.3663h-18.366299v8.597819h18.366299zM786.481933 148.507312c12.83533 0 23.277146-10.441816 23.277146-23.277146 0-12.834306-10.441816-23.277146-23.277146-23.277146s-23.277146 10.44284-23.277146 23.277146c0 12.83533 10.441816 23.277146 23.277146 23.277146z m0-36.753065c7.432273 0 13.475919 6.043646 13.47592 13.475919 0 7.432273-6.04467 13.475919-13.47592 13.475919-7.432273 0-13.475919-6.043646-13.475919-13.475919 0-7.432273 6.043646-13.475919 13.475919-13.475919zM928.617118 429.559383c-5.563716 14.814404-10.004865 19.715017-18.489097 28.290323 8.56098 8.575306 14.150278 16.309454 18.489097 28.290323 4.338818-11.980869 9.92914-19.715017 18.489096-28.290323-8.484232-8.575306-12.925381-13.475919-18.489096-28.290323z" fill="#777777" p-id="12196"></path></svg>