<?xml version="1.0" standalone="no"?><!DOCTYPE svg PUBLIC "-//W3C//DTD SVG 1.1//EN" "http://www.w3.org/Graphics/SVG/1.1/DTD/svg11.dtd"><svg t="1544670480496" class="icon" style="" viewBox="0 0 1024 1024" version="1.1" xmlns="http://www.w3.org/2000/svg" p-id="22483" xmlns:xlink="http://www.w3.org/1999/xlink" width="81" height="81"><defs><style type="text/css"></style></defs><path d="M527.482111 132.923382c-10.612709-5.118578-23.222911-3.712555-32.448016 3.626597-0.448208 0.357134-45.418422 36.097126-95.089705 72.685439-86.399789 63.640436-111.551632 74.239841-116.653837 75.922157L148.299069 285.157575c-25.285896 0-47.489594 10.489912-62.517869 29.537733-12.958126 16.423041-19.807115 37.909401-19.807115 62.136176l0 269.913383c0 50.54928 41.067324 91.674932 91.547019 91.674932l37.931914 0 107.585297-0.106424c4.475941 1.558495 27.750017 11.866259 105.70753 75.43404 44.594661 36.362162 84.619236 71.858608 85.019349 72.212672 5.730515 5.086855 13.013385 7.742335 20.387329 7.741311 4.25593 0 8.544607-0.88516 12.57848-2.698458 11.023054-4.954849 18.114566-15.915481 18.114566-28.000728l0-702.428074C544.845571 148.788721 538.09789 138.044006 527.482111 132.923382z" p-id="22484" fill="#00BFFF"></path><path d="M765.082554 185.244005c-14.971993-7.957229-33.558303-2.26867-41.515532 12.703323-7.955182 14.971993-2.26867 33.558303 12.703323 41.514509 101.026928 53.685713 163.785274 157.724231 163.785274 271.514857 0 113.771183-62.769602 217.808678-163.812903 271.513834-14.97097 7.956206-20.657482 26.543539-12.700253 41.515532 5.51869 10.381441 16.144702 16.297175 27.136034 16.297175 4.858658 0 9.790994-1.157359 14.381545-3.597945 121.141034-64.386426 196.394972-189.199083 196.394972-325.729619C961.45399 374.424668 886.208239 249.610988 765.082554 185.244005z" p-id="22485" fill="#00BFFF"></path><path d="M768.958838 625.179712c21.187555-34.156938 32.386618-73.647347 32.386618-114.203018 0-40.554648-11.20418-80.047104-32.401967-114.207112-20.662599-33.299407-49.874921-60.162218-84.47802-77.685313-15.123442-7.659447-33.596166-1.608637-41.256636 13.517875-7.659447 15.125489-1.607614 33.597189 13.517875 41.256636 51.332109 25.996071 83.220377 78.536704 83.220377 137.117914 0 58.588373-31.878035 111.127983-83.195817 137.116891-15.124466 7.66047-21.176298 26.13217-13.516852 41.257659 5.409197 10.680247 16.2061 16.835434 27.411303 16.835434 4.66423 0 9.401114-1.067308 13.846356-3.318582C719.093127 685.346023 748.301356 658.481166 768.958838 625.179712z" p-id="22486" fill="#00BFFF"></path></svg>