<?xml version="1.0" standalone="no"?><!DOCTYPE svg PUBLIC "-//W3C//DTD SVG 1.1//EN" "http://www.w3.org/Graphics/SVG/1.1/DTD/svg11.dtd"><svg t="1545890619376" class="icon" style="" viewBox="0 0 1238 1024" version="1.1" xmlns="http://www.w3.org/2000/svg" p-id="1612" xmlns:xlink="http://www.w3.org/1999/xlink" width="77.375" height="64"><defs><style type="text/css"></style></defs><path d="M316.344558 320.226233H99.44707c-2.190884 0-4.191256 2.024186-4.191256 4.572279v363.210418c0 2.548093 2.024186 4.572279 4.191256 4.572279h216.945116L571.534884 896.714419V116.093023l-255.190326 204.13321zM99.44707 787.837023C44.532093 787.837023 0 743.019163 0 688.00893V324.822326c0-55.034047 44.532093-99.828093 99.44707-99.828093h183.510325l238.520558-190.82121C602.754977-30.886698 666.790698-0.476279 666.790698 103.54307v805.721302c0 103.852651-64.154791 134.310698-145.288931 69.393861l-237.377488-189.868652-184.677209-0.952558z m910.407442 147.837024a47.627907 47.627907 0 0 1-53.057489-79.109954A420.411535 420.411535 0 0 0 1143.069767 506.594233c0-142.550326-70.965581-272.836465-186.701395-350.303256a47.627907 47.627907 0 1 1 52.962233-79.157582A515.714977 515.714977 0 0 1 1238.325581 506.594233c0 174.389581-86.873302 334.109767-228.471069 429.079814z m-131.357768-155.243163a47.627907 47.627907 0 0 1-51.057116-80.419721c66.67907-42.341209 107.781953-115.283349 107.781953-195.274419 0-78.157395-39.293023-149.694512-103.543069-192.488186a47.627907 47.627907 0 0 1 52.771721-79.300465c90.493023 60.273116 146.027163 161.387163 146.027162 271.812465 0 112.949581-58.106047 216.040186-151.980651 275.670326z" p-id="1613"></path></svg>