<?xml version="1.0" standalone="no"?><!DOCTYPE svg PUBLIC "-//W3C//DTD SVG 1.1//EN" "http://www.w3.org/Graphics/SVG/1.1/DTD/svg11.dtd"><svg t="1539311653257" class="icon" style="" viewBox="0 0 1024 1024" version="1.1" xmlns="http://www.w3.org/2000/svg" p-id="10856" xmlns:xlink="http://www.w3.org/1999/xlink" width="128" height="128"><defs><style type="text/css"></style></defs><path d="M896 64H128a64 64 0 0 0-64 64v768a64 64 0 0 0 64 64h768c35.392 0 64-28.608 64-64V128a64 64 0 0 0-64-64z m-162.368 292.16l-223.36 358.784a44.896 44.896 0 0 1-35.904 20.928c-0.576 0.128-1.344 0.128-1.984 0.128-14.016 0-27.136-6.592-35.648-17.664l-144.128-180.864a44.608 44.608 0 0 1 71.104-53.888l105.088 129.152 189.248-303.744a44.544 44.544 0 1 1 75.584 47.168z" p-id="10857" fill="#d81e06"></path></svg>