<?xml version="1.0" standalone="no"?><!DOCTYPE svg PUBLIC "-//W3C//DTD SVG 1.1//EN" "http://www.w3.org/Graphics/SVG/1.1/DTD/svg11.dtd"><svg t="1536725505683" class="icon" style="" viewBox="0 0 1025 1024" version="1.1" xmlns="http://www.w3.org/2000/svg" p-id="5895" xmlns:xlink="http://www.w3.org/1999/xlink" width="48.046875" height="48"><defs><style type="text/css"></style></defs><path d="M626.157194 350.515823c0-64.432132-52.774425-116.866813-117.568096-116.866813-64.848799 0-117.583481 52.434681-117.583481 116.866813 0 64.438542 52.744938 116.873223 117.583481 116.873223C573.393026 467.389047 626.157194 414.954366 626.157194 350.515823z" p-id="5896" fill="#50d1fe"></path><path d="M508.619868 496.490365c-123.223231 0-223.447716 99.63474-223.447716 222.036175l0 38.019278 446.799277 0 0-38.019278C731.962455 596.125105 631.771304 496.490365 508.619868 496.490365z" p-id="5897" fill="#50d1fe"></path><path d="M512.009615 0C229.232338 0 0 229.232338 0 512.009615c0 282.768303 229.232338 511.990385 512.009615 511.990385 282.768303 0 511.999359-229.222082 511.999359-511.990385C1024.010256 229.232338 794.777918 0 512.009615 0zM203.325896 677.698284c-1.457694 9.632063-2.393593 19.346178-2.824363 29.092344l-35.92825 0c-8.117959 0-14.733352-6.530777-14.733352-14.555146l0-40.655179c0-74.569324 41.160308-142.041203 107.442442-176.146374l13.621812-7.006419-10.326936-11.317963c-20.207718-22.155156-31.360296-50.661602-31.360296-80.283434 0-60.60264 45.597493-110.842446 104.497567-118.670661-7.151291 10.887193-12.99617 22.526951-17.443612 34.741069-34.679531 13.637197-57.571867 46.650058-57.571867 83.929592 0 35.426967 21.003872 67.798803 53.515452 82.461642l0.341026 0.160257 0.344872 0.135898c6.255136 2.338464 10.276936 7.582061 10.276936 13.330786 0 5.829494-4.211544 11.167963-10.556423 13.446171l-4.757698 1.147437c-75.685992 19.000024-128.565546 86.428313-128.565546 164.075846l0 26.111571L203.325896 677.69572zM761.459928 771.083017c0 8.053856-6.610265 14.583352-14.753865 14.583352l-476.282648 0c-8.117959 0-14.733352-6.529495-14.733352-14.583352L255.690064 718.51372c0-51.066731 15.448737-100.298844 44.69621-142.236076 28.56542-41.010308 68.238547-72.441116 114.698862-90.880883l19.029511-7.551292-16.130789-12.580785c-35.882096-28.014138-56.460327-69.835985-56.460327-114.75399 0-80.507793 65.970595-145.988644 147.055312-145.988644 81.075743 0 147.015569 65.480851 147.015569 145.988644 0 44.912877-20.578231 86.739852-56.425712 114.75399l-16.130789 12.580785 18.994896 7.551292c46.479545 18.439767 86.168057 49.875703 114.733477 90.851396 29.242344 41.966719 44.691082 91.170627 44.691082 142.266845L761.457364 771.083017zM867.013906 692.236764c0 8.024369-6.605136 14.555146-14.723095 14.555146l-35.947481 0c-0.405129-9.747448-1.376925-19.466691-2.808978-29.092344l23.998748 0 0-26.111571c0-77.643687-52.855194-145.077105-128.541187-164.075846l-4.773083-1.147437c-6.315393-2.283336-10.532064-7.626933-10.532064-13.446171 0-5.748725 4.032056-10.987193 10.271808-13.330786l0.355129-0.151282 0.315385-0.144872c32.521836-14.662839 53.535964-47.034674 53.535964-82.461642 0-37.279534-22.887208-70.292396-57.566739-83.929592-4.457698-12.219246-10.306423-23.853876-17.447458-34.741069 58.914176 7.842318 104.48731 58.068021 104.48731 118.670661 0 29.621832-11.123091 58.128278-31.344911 80.283434l-10.326936 11.317963 13.606427 7.006419c66.26675 34.109017 107.442442 101.575768 107.442442 176.146374L867.015188 692.236764z" p-id="5898" fill="#50d1fe"></path><path d="M512.009615 999.034584" p-id="5899" fill="#50d1fe"></path></svg>