<?xml version="1.0" standalone="no"?><!DOCTYPE svg PUBLIC "-//W3C//DTD SVG 1.1//EN" "http://www.w3.org/Graphics/SVG/1.1/DTD/svg11.dtd"><svg t="1544772970448" class="icon" style="" viewBox="0 0 1024 1024" version="1.1" xmlns="http://www.w3.org/2000/svg" p-id="2262" xmlns:xlink="http://www.w3.org/1999/xlink" width="200" height="200"><defs><style type="text/css"></style></defs><path d="M950.071755 908.285558 706.231191 664.444994c53.31323-63.253626 85.541235-144.807037 85.541235-234.007615 0-200.797235-162.77834-363.575576-363.575576-363.575576S64.621275 229.640144 64.621275 430.437379c0 200.797235 162.77834 363.575576 363.575576 363.575576 91.494831 0 174.795025-34.031071 238.705614-89.802282l243.621577 243.621577c11.79872 11.79872 30.15274 12.45466 41.077557 1.529843C962.525392 938.437276 961.870476 920.083256 950.071755 908.285558zM120.556215 430.437379c0-169.661098 138.033773-307.640636 307.640636-307.640636 169.661098 0 307.640636 137.979538 307.640636 307.640636 0 169.661098-137.979538 307.640636-307.640636 307.640636C258.589988 738.078015 120.556215 600.098477 120.556215 430.437379z" p-id="2263" fill="#8a8a8a"></path></svg>