<?xml version="1.0" standalone="no"?><!DOCTYPE svg PUBLIC "-//W3C//DTD SVG 1.1//EN" "http://www.w3.org/Graphics/SVG/1.1/DTD/svg11.dtd"><svg t="1537497540350" class="icon" style="" viewBox="0 0 1024 1024" version="1.1" xmlns="http://www.w3.org/2000/svg" p-id="40058" xmlns:xlink="http://www.w3.org/1999/xlink" width="48" height="48"><defs><style type="text/css"></style></defs><path d="M768 597.333333c-51.338667 0-97.28 22.794667-128.576 58.677334L422.858667 547.733333c2.453333-11.530667 3.808-23.477333 3.808-35.733333s-1.354667-24.202667-3.808-35.722667l216.565333-108.288C670.709333 403.882667 716.661333 426.666667 768 426.666667c94.250667 0 170.666667-76.416 170.666667-170.666667S862.250667 85.333333 768 85.333333s-170.666667 76.416-170.666667 170.666667c0 12.256 1.354667 24.202667 3.808 35.722667L384.576 400.010667C353.290667 364.117333 307.349333 341.333333 256 341.333333c-94.250667 0-170.666667 76.416-170.666667 170.666667s76.416 170.666667 170.666667 170.666667c51.349333 0 97.28-22.794667 128.576-58.677334l216.576 108.288C598.688 743.797333 597.333333 755.744 597.333333 768c0 94.250667 76.416 170.666667 170.666667 170.666667s170.666667-76.416 170.666667-170.666667-76.416-170.666667-170.666667-170.666667z m0-426.666666a85.333333 85.333333 0 1 1 0 170.666666 85.333333 85.333333 0 0 1 0-170.666666zM256 597.333333a85.333333 85.333333 0 1 1 0-170.666666 85.333333 85.333333 0 0 1 0 170.666666z m512 256a85.333333 85.333333 0 1 1 0-170.666666 85.333333 85.333333 0 0 1 0 170.666666z" fill="#777777" p-id="40059"></path></svg>