<?xml version="1.0" standalone="no"?><!DOCTYPE svg PUBLIC "-//W3C//DTD SVG 1.1//EN" "http://www.w3.org/Graphics/SVG/1.1/DTD/svg11.dtd"><svg t="1538290528396" class="icon" style="" viewBox="0 0 1024 1024" version="1.1" xmlns="http://www.w3.org/2000/svg" p-id="3928" xmlns:xlink="http://www.w3.org/1999/xlink" width="48" height="48"><defs><style type="text/css"></style></defs><path d="M831.95904 123.70944l-7.08608-10.63424H214.93248l-7.13728 9.10848c-155.40224 198.43584-133.94432 319.2576-107.26912 373.6576 26.67008 54.49216 80.76288 89.7536 137.86112 89.7536h5.12c71.98208-2.86208 119.8336-38.59456 145.07008-64.49152 22.77376 25.89696 65.62304 60.50304 132.74624 60.50304 69.9392 0 113.60768-37.6832 135.44448-63.83616 30.5408 24.88832 90.13248 65.66912 152.56064 65.66912 40.99584 0 76.02688-16.78848 104.62208-49.8688 105.99936-123.45344-74.2912-398.24384-81.99168-409.86112z m2.06848 489.00096a24.1152 24.1152 0 0 0-24.11008 24.01792v173.55776c0 26.67008-21.62176 48.27136-48.22528 48.27136H267.2896c-26.5984 0-48.22528-21.60128-48.22528-48.27136v-173.49632a24.12544 24.12544 0 0 0-24.0896-24.0896c-13.312 0-24.064 10.7776-24.11008 24.0896v178.3296c0 50.6624 40.99072 91.70432 91.61216 91.70432h504.02816c50.61632 0 91.61216-41.04192 91.61216-91.70432v-178.40128a24.11008 24.11008 0 0 0-24.0896-24.00768z" fill="#50d1fe" p-id="3929"></path><path d="M427.52 674.13333333v205.76256h168.96V674.13333333s-87.04-102.4-168.96 0z" fill="#50d1fe" p-id="3930"></path></svg>