<?xml version="1.0" standalone="no"?><!DOCTYPE svg PUBLIC "-//W3C//DTD SVG 1.1//EN" "http://www.w3.org/Graphics/SVG/1.1/DTD/svg11.dtd"><svg t="1540872608532" class="icon" style="" viewBox="0 0 1025 1024" version="1.1" xmlns="http://www.w3.org/2000/svg" p-id="5057" xmlns:xlink="http://www.w3.org/1999/xlink" width="128.125" height="128"><defs><style type="text/css"></style></defs><path d="M511.743309 166.576128c-169.588736 0-307.044352 137.455616-307.044352 307.043328 0 169.561088 137.455616 307.04128 307.044352 307.04128 169.562112 0 307.04128-137.480192 307.04128-307.04128C818.783565 304.031744 681.304397 166.576128 511.743309 166.576128zM383.807821 371.270656c28.260352 0 51.1744 22.888448 51.1744 51.1744 0 28.260352-22.914048 51.1744-51.1744 51.1744s-51.1744-22.914048-51.1744-51.1744C332.633421 394.159104 355.547469 371.270656 383.807821 371.270656zM511.743309 678.315008c-142.053376 0-179.109888-153.520128-179.109888-153.520128l51.1744 0c0 0 9.494528 102.346752 127.935488 102.346752 118.413312 0 127.934464-102.346752 127.934464-102.346752l51.172352 0C690.849101 524.79488 653.794637 678.315008 511.743309 678.315008zM639.676749 473.619456c-28.2624 0-51.1744-22.914048-51.1744-51.1744 0-28.285952 22.912-51.1744 51.1744-51.1744 28.261376 0 51.172352 22.888448 51.172352 51.1744C690.849101 450.705408 667.938125 473.619456 639.676749 473.619456zM972.307789 371.270656l-51.1744 0c0 0-102.897664-307.067904-409.391104-307.067904-307.667968 0-409.392128 307.067904-409.392128 307.067904s-14.76608 0-51.173376 0c-52.173824 0-51.175424 51.1744-51.175424 51.1744s0 83.608576 0 153.522176c0 49.649664 51.175424 51.1744 51.175424 51.1744l51.173376 0c0 0-0.423936 332.655616 332.63104 332.655616L537.328973 959.797248c34.10944-1.69984 51.1744 0 51.1744-51.202048 0-22.385664-0.101376-51.1744-51.1744-51.1744-38.431744 0-37.331968 0-51.1744 0-51.422208 0-51.172352 26.688512-51.172352 51.1744-100.849664 0-281.45664-77.708288-281.45664-281.453568L153.525581 396.859392c0 0 85.456896-281.457664 358.217728-281.457664 274.10944 0 358.21568 281.457664 358.21568 281.457664l0 230.28224c0 0 59.570176 0 102.3488 0 49.523712 0 51.171328-51.1744 51.171328-51.1744s0-112.367616 0-153.522176C1023.479117 369.473536 972.307789 371.270656 972.307789 371.270656z" p-id="5058" fill="#d81e06"></path></svg>