<?xml version="1.0" standalone="no"?><!DOCTYPE svg PUBLIC "-//W3C//DTD SVG 1.1//EN" "http://www.w3.org/Graphics/SVG/1.1/DTD/svg11.dtd"><svg t="1538193207119" class="icon" style="" viewBox="0 0 1024 1024" version="1.1" xmlns="http://www.w3.org/2000/svg" p-id="4453" xmlns:xlink="http://www.w3.org/1999/xlink" width="48" height="48"><defs><style type="text/css"></style></defs><path d="M309.2 683.5878125v-41.79h407.214375v41.79H309.2z m-1.20375-176.0953125h408.418125v42.99375H307.99625v-42.99375z m0-134.3034375H447.096875v2.0109375h2.0109375v42.1865625H307.99625v-44.1975zM849.5 389.024375l-0.395625 454.1146875c0 19.84125-7.7128125 38.495625-21.555 52.321875-13.7278125 13.8253125-31.9696875 21.5540625-51.9084375 21.5540625H248.3590625c-19.940625 0-38.5771875-7.72875-52.321875-21.5540625C182.2128125 881.238125 174.5 862.9803125 174.5 843.1390625v-662.278125c0-40.588125 33.2709375-73.8759375 73.8590625-73.8759375h287.5434375l-0.395625 0.8240625h32.8753125L849.5 389.024375zM583.0165625 192.9903125v150.931875c0 17.0390625 13.726875 30.88125 30.7659375 30.88125h157.04625L583.0165625 192.9903125z m-41.8078125 150.931875V152.4021875l-2.405625-2.405625H247.15625c-17.04 0-30.8653125 13.8253125-30.8653125 30.8653125v663.0853125c0 17.04 13.8253125 30.7659375 30.8653125 30.7659375h530.9896875c17.0390625 0 30.7659375-13.726875 30.7659375-30.7659375V417.798125H615.0846875c-40.588125 0-73.8759375-33.2728125-73.8759375-73.8759375z" fill="#4484ce" p-id="4454"></path></svg>