<?xml version="1.0" standalone="no"?><!DOCTYPE svg PUBLIC "-//W3C//DTD SVG 1.1//EN" "http://www.w3.org/Graphics/SVG/1.1/DTD/svg11.dtd"><svg t="1538190819056" class="icon" style="" viewBox="0 0 1298 1024" version="1.1" xmlns="http://www.w3.org/2000/svg" p-id="31400" xmlns:xlink="http://www.w3.org/1999/xlink" width="81.125" height="64"><defs><style type="text/css"></style></defs><path d="M1077.522124 858.053097l-46.584071-605.168141h-0.424779c-1.557522-11.327434-10.902655-20.247788-22.654867-20.247788h-162.831858V186.19469c0-102.79646-83.39823-186.19469-186.194691-186.19469-69.380531 0-129.840708 38.088496-161.840708 94.442478 16.849558 1.699115 33.132743 5.380531 48.707965 10.619469 25.345133-35.256637 66.40708-58.336283 113.132743-58.336283 77.168142 0 139.610619 62.584071 139.61062 139.610619v46.584071h-112.424779c6.513274 14.725664 11.610619 30.300885 14.867257 46.584071h97.557522v46.584071h23.504425c8.070796 0 15.858407 1.557522 23.079646 4.106194V279.504425h141.451327L1022.300885 745.061947h-103.504425l3.539823 46.584071h103.362832l3.539823 46.58407h-103.504425l3.539823 46.584071h125.026549c12.884956 0 23.221239-10.477876 23.221239-23.221239 0-0.99115-0.424779-1.982301-0.566372-2.973451l0.566372-0.566372z" p-id="31401" fill="#50d1fe"></path><path d="M53.80531 1003.469027c1.274336 11.610619 11.185841 20.530973 23.079646 20.530973h791.362832c12.884956 0 23.221239-10.477876 23.221239-23.221239 0-1.132743-0.424779-1.982301-0.566372-2.973451h0.424779l-46.584071-605.168142h-0.424779c-1.557522-11.327434-10.902655-20.247788-22.654867-20.247787h-162.831859v-46.584071c0-102.79646-83.39823-186.19469-186.19469-186.194691S286.442478 223.00885 286.442478 325.80531v46.584071H123.469027c-11.752212 0-21.097345 8.920354-22.654868 20.247787h-0.424778L53.80531 997.663717h0.424778c-0.141593 0.566372-0.283186 1.274336-0.424778 1.840708v3.964602z m279.079646-677.663717c0-77.168142 62.584071-139.610619 139.610619-139.61062 77.168142 0 139.610619 62.584071 139.61062 139.61062v46.584071H332.884956v-46.584071zM105.628319 930.973451H839.646018l3.539823 46.584071H101.946903l3.681416-46.584071z" p-id="31402" fill="#50d1fe"></path></svg>