<?xml version="1.0" standalone="no"?><!DOCTYPE svg PUBLIC "-//W3C//DTD SVG 1.1//EN" "http://www.w3.org/Graphics/SVG/1.1/DTD/svg11.dtd"><svg t="1538191525930" class="icon" style="" viewBox="0 0 1024 1024" version="1.1" xmlns="http://www.w3.org/2000/svg" p-id="3400" xmlns:xlink="http://www.w3.org/1999/xlink" width="64" height="64"><defs><style type="text/css"></style></defs><path d="M640.8 102.4c-12 0-48.8 0-286.4 127.2L256 280.8h560.8l-76-124.8c-20-35.2-42.4-53.6-100-53.6z m45.6 475.2C676 588 672 600 672 614.4s4 26.4 14.4 36.8 22.4 14.4 36.8 14.4 26.4-4 36.8-14.4 14.4-22.4 14.4-36.8-4-26.4-14.4-36.8-22.4-14.4-36.8-14.4-27.2 4-36.8 14.4z" fill="#F6508A" p-id="3401"></path><path d="M794.4 317.6H231.2c-69.6 0-127.2 57.6-127.2 127.2v350.4c0 69.6 57.6 127.2 127.2 127.2h563.2c69.6 0 127.2-57.6 127.2-127.2V692H706.4c-40.8 0-76-36.8-76-80s35.2-77.6 76-77.6h216.8V442.4c-1.6-68-59.2-124.8-128.8-124.8z" fill="#F6508A" p-id="3402"></path></svg>