<?xml version="1.0" standalone="no"?><!DOCTYPE svg PUBLIC "-//W3C//DTD SVG 1.1//EN" "http://www.w3.org/Graphics/SVG/1.1/DTD/svg11.dtd"><svg t="1538191144409" class="icon" style="" viewBox="0 0 1024 1024" version="1.1" xmlns="http://www.w3.org/2000/svg" p-id="46192" xmlns:xlink="http://www.w3.org/1999/xlink" width="64" height="64"><defs><style type="text/css"></style></defs><path d="M917.141333 480.853333H106.858667a31.146667 31.146667 0 1 0 0 62.336h810.282666a31.146667 31.146667 0 1 0 0-62.336zM138.026667 231.488a93.461333 93.461333 0 0 1 93.482666-93.461333h39.338667V75.690667h-39.338667a155.818667 155.818667 0 0 0-155.818666 155.797333v124.714667H138.026667v-124.714667zM138.026667 792.469333v-124.672H75.690667v124.672a155.861333 155.861333 0 0 0 155.818666 155.84h39.338667V885.973333h-39.338667a93.482667 93.482667 0 0 1-93.482666-93.504zM885.973333 792.469333a93.504 93.504 0 0 1-93.504 93.504h-39.338666v62.336h39.338666a155.861333 155.861333 0 0 0 155.84-155.84v-124.629333H885.973333v124.629333zM792.469333 75.690667h-39.338666V138.026667h39.338666a93.525333 93.525333 0 0 1 93.504 93.504v124.672h62.336v-124.672a155.861333 155.861333 0 0 0-155.84-155.84zM219.221333 288.469333v147.925334h198.954667l94.037333-116.224 93.333334 116.224 199.253333 0.021333v-147.925333c0-46.485333-35.925333-84.16-80.298667-84.16H548.544v60.074666H476.373333V204.309333h-155.456l-0.341333 0.021334h-21.12c-44.309333 0-80.234667 37.674667-80.234667 84.138666zM804.821333 740.885333v-152.448h-585.6v152.448c0 46.506667 35.925333 84.16 80.256 84.16h425.045334c44.373333 0.021333 80.298667-37.674667 80.298666-84.16z" fill="#25B77B" p-id="46193"></path></svg>